<?xml version="1.0" standalone="no"?>
<svg xmlns="http://www.w3.org/2000/svg" version="1.1" xmlns:xlink="http://www.w3.org/1999/xlink" width="512" height="512" x="0" y="0" viewBox="0 0 195 195" style="enable-background:new 0 0 512 512" xml:space="preserve" class=""><g transform="matrix(1.0500000000000003,0,0,1.0500000000000003,-4.87678089141842,-4.873791408538807)"><path d="M110.5 51.2c11.2 11.2 22.1 22.2 33.3 33.4-.7.8-1.6 1.8-2.6 2.8-23.7 23.7-47.3 47.5-71.2 71-3 2.9-7.1 5.1-11 6.5-9.3 3.1-18.8 5.6-28.2 8.2-5.8 1.6-10.5-2.8-8.9-8.7 2.9-10.7 6.1-21.4 9.4-32.1.7-2.2 2.2-4.3 3.8-6 24.7-24.8 49.4-49.5 74.2-74.3.3-.1.7-.4 1.2-.8M151.5 76.9c-11.2-11.3-22.2-22.3-32.9-33.2 5.5-5.7 11.1-12.2 17.4-17.8 6.8-6.1 17.1-5.7 24.1.4q4.65 4.05 8.7 8.7c6.2 7.1 6.3 17.8 0 24.8-5.5 5.9-11.5 11.3-17.3 17.1" fill="#818181" opacity="1" data-original="#000000"/></g></svg>